<svg id="visual" viewBox="0 0 900 600" width="900" height="600" xmlns="http://www.w3.org/2000/svg" xmlns:xlink="http://www.w3.org/1999/xlink" version="1.1"><path d="M0 127L21.5 127C43 127 86 127 128.8 117C171.7 107 214.3 87 257.2 83C300 79 343 91 385.8 101C428.7 111 471.3 119 514.2 123C557 127 600 127 642.8 117C685.7 107 728.3 87 771.2 86C814 85 857 103 878.5 112L900 121L900 0L878.5 0C857 0 814 0 771.2 0C728.3 0 685.7 0 642.8 0C600 0 557 0 514.2 0C471.3 0 428.7 0 385.8 0C343 0 300 0 257.2 0C214.3 0 171.7 0 128.8 0C86 0 43 0 21.5 0L0 0Z" fill="#b2d5ea"></path><path d="M0 295L21.5 298C43 301 86 307 128.8 306C171.7 305 214.3 297 257.2 297C300 297 343 305 385.8 307C428.7 309 471.3 305 514.2 298C557 291 600 281 642.8 276C685.7 271 728.3 271 771.2 276C814 281 857 291 878.5 296L900 301L900 119L878.5 110C857 101 814 83 771.2 84C728.3 85 685.7 105 642.8 115C600 125 557 125 514.2 121C471.3 117 428.7 109 385.8 99C343 89 300 77 257.2 81C214.3 85 171.7 105 128.8 115C86 125 43 125 21.5 125L0 125Z" fill="#84bada"></path><path d="M0 385L21.5 389C43 393 86 401 128.8 396C171.7 391 214.3 373 257.2 371C300 369 343 383 385.8 383C428.7 383 471.3 369 514.2 362C557 355 600 355 642.8 356C685.7 357 728.3 359 771.2 369C814 379 857 397 878.5 406L900 415L900 299L878.5 294C857 289 814 279 771.2 274C728.3 269 685.7 269 642.8 274C600 279 557 289 514.2 296C471.3 303 428.7 307 385.8 305C343 303 300 295 257.2 295C214.3 295 171.7 303 128.8 304C86 305 43 299 21.5 296L0 293Z" fill="#6ba4c6"></path><path d="M0 535L21.5 531C43 527 86 519 128.8 514C171.7 509 214.3 507 257.2 508C300 509 343 513 385.8 521C428.7 529 471.3 541 514.2 546C557 551 600 549 642.8 545C685.7 541 728.3 535 771.2 530C814 525 857 521 878.5 519L900 517L900 413L878.5 404C857 395 814 377 771.2 367C728.3 357 685.7 355 642.8 354C600 353 557 353 514.2 360C471.3 367 428.7 381 385.8 381C343 381 300 367 257.2 369C214.3 371 171.7 389 128.8 394C86 399 43 391 21.5 387L0 383Z" fill="#84bada"></path><path d="M0 601L21.5 601C43 601 86 601 128.8 601C171.7 601 214.3 601 257.2 601C300 601 343 601 385.8 601C428.7 601 471.3 601 514.2 601C557 601 600 601 642.8 601C685.7 601 728.3 601 771.2 601C814 601 857 601 878.5 601L900 601L900 515L878.5 517C857 519 814 523 771.2 528C728.3 533 685.7 539 642.8 543C600 547 557 549 514.2 544C471.3 539 428.7 527 385.8 519C343 511 300 507 257.2 506C214.3 505 171.7 507 128.8 512C86 517 43 525 21.5 529L0 533Z" fill="#b2d5ea"></path></svg>