<svg id="visual" viewBox="0 0 900 600" width="900" height="600" xmlns="http://www.w3.org/2000/svg" xmlns:xlink="http://www.w3.org/1999/xlink" version="1.1"><path d="M0 73L21.5 72C43 71 86 69 128.8 71C171.7 73 214.3 79 257.2 81C300 83 343 81 385.8 79C428.7 77 471.3 75 514.2 75C557 75 600 77 642.8 78C685.7 79 728.3 79 771.2 78C814 77 857 75 878.5 74L900 73L900 0L878.5 0C857 0 814 0 771.2 0C728.3 0 685.7 0 642.8 0C600 0 557 0 514.2 0C471.3 0 428.7 0 385.8 0C343 0 300 0 257.2 0C214.3 0 171.7 0 128.8 0C86 0 43 0 21.5 0L0 0Z" fill="#b2d5ea"></path><path d="M0 223L21.5 233C43 243 86 263 128.8 276C171.7 289 214.3 295 257.2 280C300 265 343 229 385.8 210C428.7 191 471.3 189 514.2 191C557 193 600 199 642.8 221C685.7 243 728.3 281 771.2 293C814 305 857 291 878.5 284L900 277L900 71L878.5 72C857 73 814 75 771.2 76C728.3 77 685.7 77 642.8 76C600 75 557 73 514.2 73C471.3 73 428.7 75 385.8 77C343 79 300 81 257.2 79C214.3 77 171.7 71 128.8 69C86 67 43 69 21.5 70L0 71Z" fill="#9fcbe5"></path><path d="M0 355L21.5 360C43 365 86 375 128.8 384C171.7 393 214.3 401 257.2 390C300 379 343 349 385.8 336C428.7 323 471.3 327 514.2 324C557 321 600 311 642.8 319C685.7 327 728.3 353 771.2 366C814 379 857 379 878.5 379L900 379L900 275L878.5 282C857 289 814 303 771.2 291C728.3 279 685.7 241 642.8 219C600 197 557 191 514.2 189C471.3 187 428.7 189 385.8 208C343 227 300 263 257.2 278C214.3 293 171.7 287 128.8 274C86 261 43 241 21.5 231L0 221Z" fill="#8cc2e1"></path><path d="M0 445L21.5 448C43 451 86 457 128.8 462C171.7 467 214.3 471 257.2 461C300 451 343 427 385.8 419C428.7 411 471.3 419 514.2 411C557 403 600 379 642.8 387C685.7 395 728.3 435 771.2 451C814 467 857 459 878.5 455L900 451L900 377L878.5 377C857 377 814 377 771.2 364C728.3 351 685.7 325 642.8 317C600 309 557 319 514.2 322C471.3 325 428.7 321 385.8 334C343 347 300 377 257.2 388C214.3 399 171.7 391 128.8 382C86 373 43 363 21.5 358L0 353Z" fill="#7bb3d3"></path><path d="M0 601L21.5 601C43 601 86 601 128.8 601C171.7 601 214.3 601 257.2 601C300 601 343 601 385.8 601C428.7 601 471.3 601 514.2 601C557 601 600 601 642.8 601C685.7 601 728.3 601 771.2 601C814 601 857 601 878.5 601L900 601L900 449L878.5 453C857 457 814 465 771.2 449C728.3 433 685.7 393 642.8 385C600 377 557 401 514.2 409C471.3 417 428.7 409 385.8 417C343 425 300 449 257.2 459C214.3 469 171.7 465 128.8 460C86 455 43 449 21.5 446L0 443Z" fill="#6ba4c6"></path></svg>